<?xml version="1.0" encoding="UTF-8"?>
<svg version="1.1" xmlns="http://www.w3.org/2000/svg" width="831" height="831">
<path d="M0 0 C0.91504303 -0.0099852 1.83008606 -0.0199704 2.77285767 -0.03025818 C4.70057714 -0.04534618 6.62837389 -0.05248689 8.55615234 -0.05200195 C11.43596662 -0.05850212 14.31220908 -0.11291051 17.19140625 -0.16992188 C35.16700245 -0.33393912 54.67568974 2.91954206 68.1015625 15.81640625 C69.14128149 16.80146312 70.18164592 17.78583918 71.22265625 18.76953125 C72.17269531 19.671875 73.12273437 20.57421875 74.1015625 21.50390625 C75.44717648 22.70108903 76.80013815 23.89012653 78.1640625 25.06640625 C81.35400859 27.83191045 84.48249239 30.65866397 87.6015625 33.50390625 C91.39090376 36.95966038 95.21239948 40.36913515 99.08203125 43.734375 C103.99892806 48.04260373 108.82795282 52.45076781 113.6796875 56.83203125 C117.55335928 60.32546531 121.43235334 63.81155904 125.3515625 67.25390625 C125.99222656 67.81980469 126.63289063 68.38570313 127.29296875 68.96875 C128.89549969 70.32899764 130.58766258 71.58205729 132.2890625 72.81640625 C139.30523433 79.52074822 141.71298572 89.7941362 144.5078125 98.8203125 C144.91328995 100.10796764 145.31953403 101.39538159 145.72648621 102.68257141 C146.80554488 106.10264106 147.87450949 109.52578219 148.94118881 112.94972992 C150.04890055 116.50024572 151.16497699 120.04812916 152.28051758 123.59619141 C153.62164943 127.86316441 154.96205889 132.1303554 156.29829407 136.39886475 C158.91826475 144.76507823 161.57259561 153.11913732 164.26953125 161.4609375 C164.87901645 163.3527477 165.48839589 165.24459198 166.09765625 167.13647461 C166.93152109 169.72526583 167.76759198 172.31319497 168.61230469 174.89846802 C176.18028228 198.07918107 176.18028228 198.07918107 171.1015625 210.50390625 C168.55295372 214.72760871 165.66437354 218.5980699 162.64501953 222.49365234 C160.38215557 225.44088769 158.19934221 228.44514683 156.00708008 231.44506836 C150.60755332 238.8258283 145.13194541 246.14948429 139.63232422 253.45581055 C135.83480486 258.50729854 132.08941315 263.59567069 128.3515625 268.69140625 C123.3236504 275.54281923 118.20804715 282.32089364 113.0390625 289.06640625 C108.12740653 295.47793425 103.29962221 301.93422612 98.6015625 308.50390625 C93.25006175 315.9873463 87.71081597 323.31257806 82.11547852 330.61499023 C77.11158676 337.15392847 72.201066 343.7551587 67.33154297 350.39453125 C59.85590363 360.58064877 52.24898702 370.66865511 44.6484375 380.76171875 C41.41302647 385.06361712 38.19207619 389.37493847 35.0078125 393.71484375 C27.97956716 403.29313366 20.86099766 412.79251326 13.64233398 422.22827148 C9.80229425 427.25324847 6.031391 432.31501187 2.34375 437.453125 C-0.96549291 441.95577084 -4.37613847 446.38000659 -7.7734375 450.81640625 C-12.23904501 456.65103212 -16.67505621 462.49111136 -20.8984375 468.50390625 C-25.65869335 475.27662799 -30.69213432 481.83201986 -35.72558594 488.40307617 C-40.85656638 495.11082691 -45.89476931 501.88070577 -50.88964844 508.69018555 C-55.01167325 514.30829609 -59.17831202 519.89061872 -63.36914062 525.45751953 C-66.57658846 529.7246084 -69.75055731 534.01485342 -72.90795898 538.3190918 C-78.65731473 546.15560319 -84.4616151 553.94804339 -90.3359375 561.69140625 C-90.98594727 562.55209717 -91.63595703 563.41278809 -92.30566406 564.29956055 C-95.3294907 568.27114795 -98.39945183 572.20282544 -101.59375 576.0390625 C-102.38869873 576.99824585 -102.38869873 576.99824585 -103.19970703 577.97680664 C-105.69014445 580.21562327 -108.12974167 580.63488882 -111.39453125 580.95703125 C-118.15234922 579.73408759 -123.96385845 575.28042287 -129.4609375 571.37890625 C-144.36374165 560.90062166 -159.68346666 551.01970126 -174.8984375 541.00390625 C-196.78436782 526.5967152 -196.78436782 526.5967152 -206.16300964 520.32847595 C-210.6615844 517.32338605 -215.1722229 514.3368705 -219.68606567 511.35476685 C-223.41451551 508.89045642 -227.13966524 506.42118332 -230.86450195 503.95141602 C-232.78407527 502.68020703 -234.70500569 501.41104526 -236.62719727 500.14379883 C-239.4360529 498.29134067 -242.23995431 496.43159342 -245.04296875 494.5703125 C-245.90428909 494.00470108 -246.76560944 493.43908966 -247.6530304 492.8563385 C-248.44533554 492.32826096 -249.23764069 491.80018341 -250.05395508 491.25610352 C-251.09861687 490.56521385 -251.09861687 490.56521385 -252.16438293 489.86036682 C-253.8984375 488.50390625 -253.8984375 488.50390625 -255.8984375 485.50390625 C-255.59495269 479.1790069 -253.77136077 473.73945166 -251.6484375 467.81640625 C-245.76971547 450.74364287 -242.10291949 433.41246196 -239.8984375 415.50390625 C-239.80272461 414.78404541 -239.70701172 414.06418457 -239.60839844 413.32250977 C-238.60306065 404.85371 -238.65473508 396.33254243 -238.6484375 387.81640625 C-238.64776276 386.99510223 -238.64708801 386.17379822 -238.64639282 385.3276062 C-238.66392167 371.85643999 -239.34715679 358.76365723 -241.8984375 345.50390625 C-242.07536133 344.58125977 -242.25228516 343.65861328 -242.43457031 342.70800781 C-254.18128228 283.44696178 -289.96498518 231.41591175 -338.90234375 196.3515625 C-340.23072266 195.37509766 -340.23072266 195.37509766 -341.5859375 194.37890625 C-342.35292969 193.84007812 -343.11992187 193.30125 -343.91015625 192.74609375 C-349.74440492 186.1668035 -349.9538032 175.8385292 -351.0859375 167.50390625 C-351.26318359 166.28445312 -351.44042969 165.065 -351.62304688 163.80859375 C-353.51953328 150.24761764 -353.51953328 150.24761764 -352.8984375 144.50390625 C-349.39688099 140.2047891 -345.51635039 138.10268512 -340.46875 136.078125 C-339.73914566 135.7738559 -339.00954132 135.46958679 -338.25782776 135.15609741 C-335.85111157 134.15592705 -333.43750598 133.17368239 -331.0234375 132.19140625 C-329.31441956 131.48535885 -327.60584965 130.77822609 -325.89770508 130.07006836 C-321.44586512 128.22814451 -316.98797327 126.40138907 -312.52801514 124.57922363 C-308.40017035 122.89121747 -304.27649183 121.19310633 -300.15234375 119.49609375 C-294.53156529 117.18501498 -288.90863045 114.87928514 -283.28358459 112.57861328 C-266.29519545 105.6295903 -249.34560669 98.58704389 -232.39678955 91.54217529 C-229.90907044 90.50832511 -227.42111988 89.47503382 -224.93310547 88.44189453 C-207.54778192 81.22191378 -190.17854289 73.97318927 -172.8984375 66.50390625 C-186.07839249 71.01384522 -199.02411623 76.03009531 -211.9609375 81.19140625 C-214.06716452 82.02882751 -216.17353152 82.86589676 -218.2800293 83.70263672 C-222.64621181 85.43728204 -227.01179611 87.17342028 -231.37695312 88.91064453 C-240.65464241 92.60161433 -249.93953484 96.27436701 -259.22436523 99.94732666 C-262.20636926 101.12709892 -265.18817868 102.30736166 -268.16992188 103.48779297 C-278.09396081 107.41650023 -288.01893216 111.34283717 -297.9453125 115.265625 C-299.4092469 115.8441925 -299.4092469 115.8441925 -300.90275574 116.43444824 C-305.51287719 118.25638204 -310.1231334 120.07797339 -314.73364258 121.89892578 C-315.56719772 122.2284021 -316.40075287 122.55787842 -317.25956726 122.89733887 C-318.87269076 123.53453212 -320.48621473 124.17071267 -322.10017395 124.80578613 C-325.83402662 126.27766803 -329.55670288 127.7696157 -333.26123047 129.31396484 C-334.28735695 129.73768623 -334.28735695 129.73768623 -335.33421326 130.16996765 C-337.16296137 130.92730018 -338.98777946 131.69410358 -340.81225586 132.46166992 C-343.75047428 133.4539375 -345.83137821 133.73525384 -348.8984375 133.50390625 C-346.47674936 130.70175339 -344.12604394 129.58723192 -340.6953125 128.25390625 C-339.59598389 127.82102295 -338.49665527 127.38813965 -337.36401367 126.94213867 C-336.13787354 126.46752197 -334.9117334 125.99290527 -333.6484375 125.50390625 C-331.61628876 124.70599317 -329.58543145 123.90484912 -327.55461121 123.1035614 C-326.0723665 122.51883198 -324.58977998 121.93496844 -323.10688782 121.35188293 C-314.38319711 117.91837762 -305.69576983 114.39578345 -297.00704956 110.87493896 C-291.98211036 108.83900888 -286.95584013 106.80636967 -281.9296875 104.7734375 C-280.88542099 104.35098755 -279.84115448 103.9285376 -278.76524353 103.49328613 C-267.09631591 98.77344183 -255.42275329 94.06509359 -243.74926758 89.35653687 C-226.85693832 82.54289399 -209.96562029 75.72682719 -193.08270264 68.88989258 C-190.60164787 67.88526767 -188.12042965 66.88104757 -185.63916016 65.87695312 C-177.06530694 62.40709588 -168.49281914 58.93391873 -159.92247009 55.45541382 C-155.24915628 53.55936211 -150.57481288 51.66585717 -145.90029907 49.77276611 C-143.64902493 48.86039892 -141.39817364 47.94698743 -139.14779663 47.03240967 C-102.67125103 32.20957926 -102.67125103 32.20957926 -86.0234375 27.81640625 C-81.97771403 26.72656989 -77.93602363 25.62352377 -73.8984375 24.50390625 C-72.45198853 24.11029907 -72.45198853 24.11029907 -70.97631836 23.70874023 C-60.37936304 20.65540905 -50.34581246 16.24233679 -40.2109375 11.94140625 C-37.47807701 10.78311899 -34.74444733 9.62685533 -32.00810242 8.4768219 C-30.31968691 7.76714586 -28.63317066 7.05292547 -26.9490509 6.33311462 C-17.96417422 2.55486505 -9.79967916 0.03857592 0 0 Z M-2.85644531 11.49804688 C-16.52600375 11.59130778 -26.98439797 14.36070449 -39.3984375 19.87890625 C-41.19811854 20.6466901 -42.99935521 21.41083613 -44.80200195 22.17163086 C-48.58306548 23.7721398 -52.35585528 25.39021709 -56.12353516 27.02197266 C-64.76183286 30.75158554 -73.4748795 34.30012231 -82.17935181 37.8717041 C-87.02456529 39.86324592 -91.86350541 41.86991262 -96.703125 43.875 C-107.02938018 48.15002484 -117.36824597 52.39383362 -127.7109375 56.62890625 C-141.86271867 62.42404807 -155.99145479 68.27310311 -170.11254883 74.14257812 C-183.04610151 79.51616278 -196.01027302 84.80907714 -208.99731445 90.0519104 C-222.04002944 95.31928164 -235.03802305 100.68851366 -248.00634766 106.13647461 C-255.01819751 109.07857837 -262.04063226 111.9765548 -269.12109375 114.75 C-270.39964711 115.25470479 -271.67813214 115.75958273 -272.95654297 116.26464844 C-275.31369604 117.19127312 -277.67580077 118.10543424 -280.04345703 119.00488281 C-281.07196777 119.41061523 -282.10047852 119.81634766 -283.16015625 120.234375 C-284.05694092 120.57879639 -284.95372559 120.92321777 -285.87768555 121.27807617 C-288.08680132 122.33219595 -288.08680132 122.33219595 -288.69458008 124.64575195 C-288.76185303 125.25894287 -288.82912598 125.87213379 -288.8984375 126.50390625 C-287.97901367 127.00035645 -287.97901367 127.00035645 -287.04101562 127.50683594 C-270.67172634 136.40159186 -255.63747387 145.78772294 -242.01171875 158.56640625 C-240.50140387 159.9510942 -238.93038468 161.27070985 -237.32421875 162.54296875 C-233.68952453 165.48115957 -230.87112771 168.91097429 -227.8984375 172.50390625 C-227.48787109 172.99681152 -227.07730469 173.4897168 -226.65429688 173.99755859 C-214.02769863 189.25392785 -204.45817391 205.95596929 -197.8203125 224.6484375 C-196.91837176 226.85052433 -196.91837176 226.85052433 -193.8984375 228.50390625 C-188.18019905 228.22442245 -184.02912269 226.95459987 -178.83984375 224.43359375 C-178.18704437 224.12102127 -177.534245 223.80844879 -176.86166382 223.48640442 C-175.45730978 222.81262969 -174.05538625 222.13376941 -172.6557312 221.45028687 C-168.85453302 219.59474571 -165.03489404 217.77767079 -161.21875 215.953125 C-160.43654587 215.57773087 -159.65434174 215.20233673 -158.84843445 214.81556702 C-151.22700054 211.16340503 -143.5398423 207.66529424 -135.8359375 204.19140625 C-123.22040694 198.48948888 -110.64421267 192.70581915 -98.0859375 186.87890625 C-97.21080505 186.4728717 -96.33567261 186.06683716 -95.434021 185.64849854 C-90.35347296 183.29077856 -85.2737439 180.93129946 -80.19445801 178.57086182 C-74.45045079 175.90163458 -68.70559814 173.23422681 -62.9609375 170.56640625 C-61.85210205 170.05134521 -60.7432666 169.53628418 -59.60083008 169.00561523 C-48.78106102 163.98137549 -37.94948754 158.9828261 -27.11621094 153.98779297 C-22.79535752 151.99521732 -18.47516416 150.00121307 -14.1550293 148.00708008 C-11.97946804 147.00288706 -9.80384931 145.99881856 -7.62817383 144.99487305 C-2.32282669 142.54670905 2.981905 140.09723238 8.28515625 137.64453125 C55.18824399 115.95958202 55.18824399 115.95958202 75.43432617 107.02197266 C81.64250306 104.27727268 87.79717272 101.428586 93.93359375 98.52685547 C96.49744481 97.31711043 99.06535705 96.11613815 101.6328125 94.9140625 C103.56006579 94.00687139 105.48714994 93.09932086 107.4140625 92.19140625 C108.34065674 91.75844238 109.26725098 91.32547852 110.22192383 90.87939453 C111.0858374 90.47060059 111.94975098 90.06180664 112.83984375 89.640625 C113.61368408 89.27670654 114.38752441 88.91278809 115.18481445 88.5378418 C117.25979436 87.53676447 117.25979436 87.53676447 119.1015625 85.50390625 C119.00302625 82.05513748 118.26829743 80.68940265 115.94921875 78.109375 C115.03011719 77.31144531 114.11101562 76.51351562 113.1640625 75.69140625 C112.41709106 75.03748901 112.41709106 75.03748901 111.6550293 74.37036133 C107.83937304 71.05748245 103.9213685 67.87622999 99.94921875 64.75390625 C96.38516019 61.93785998 92.87029852 59.0637331 89.3515625 56.19140625 C84.24807979 52.03103659 79.10925388 47.92407284 73.9140625 43.87890625 C69.36376757 40.33415527 64.92173119 36.69111062 60.5390625 32.94140625 C58.92710432 31.57641425 57.31300228 30.21403264 55.69726562 28.85351562 C54.63672041 27.95653063 53.58067555 27.0541964 52.52929688 26.14648438 C38.05379339 13.72603369 24.72661298 10.34533747 5.73925781 11.35351562 C2.86226272 11.47245717 0.02100113 11.50669475 -2.85644531 11.49804688 Z M72.7890625 212.25390625 C72.11435913 213.12801147 72.11435913 213.12801147 71.42602539 214.01977539 C67.37680405 219.23563744 63.08180933 224.20870286 58.73168945 229.17431641 C55.07491153 233.35614492 51.55908873 237.61993085 48.12109375 241.984375 C45.68975546 245.01766938 43.1830001 247.98079192 40.6640625 250.94140625 C35.73575061 256.73623452 30.89996 262.6008417 26.1015625 268.50390625 C21.36840025 274.32671736 16.59739677 280.10861173 11.7265625 285.81640625 C7.94375299 290.25251434 4.29610628 294.76980886 0.7265625 299.37890625 C-3.67800293 305.06147621 -8.31649861 310.49443609 -13.05981445 315.89575195 C-17.1453193 320.5722532 -21.00203297 325.38722108 -24.80029297 330.2980957 C-28.57241572 335.15061032 -32.53505682 339.81629634 -36.55664062 344.46289062 C-40.3259242 348.8203589 -43.98901271 353.25378278 -47.62109375 357.7265625 C-50.18047967 360.84787192 -52.78445295 363.92833864 -55.3984375 367.00390625 C-60.30399059 372.77929248 -65.11740507 378.62487903 -69.8984375 384.50390625 C-71.29353784 386.21283823 -72.68938958 387.92115704 -74.0859375 389.62890625 C-74.82457031 390.53253906 -75.56320312 391.43617188 -76.32421875 392.3671875 C-78.27264982 394.74566013 -80.23072682 397.11599074 -82.19140625 399.484375 C-85.19012042 403.10696054 -88.17455063 406.74097489 -91.15283203 410.38037109 C-92.82665205 412.416579 -94.51604533 414.43898475 -96.20703125 416.4609375 C-97.20917435 417.68290451 -98.21052091 418.90552536 -99.2109375 420.12890625 C-99.90388916 420.94355347 -99.90388916 420.94355347 -100.61083984 421.7746582 C-103.7068357 425.61058877 -104.79363693 428.58379515 -104.8984375 433.50390625 C-103.16642214 440.11855539 -100.36467599 446.23757377 -94.8984375 450.50390625 C-93.50625 451.61765625 -93.50625 451.61765625 -92.0859375 452.75390625 C-88.37092214 454.79352253 -85.15401683 455.91525399 -80.8984375 455.50390625 C-74.84078028 453.57741825 -72.00757461 450.91142204 -68.2734375 445.87890625 C-67.76619141 445.22083984 -67.25894531 444.56277344 -66.73632812 443.88476562 C-65.1095735 441.7681926 -63.50366923 439.63683263 -61.8984375 437.50390625 C-60.81906124 436.08881079 -59.73833284 434.67474565 -58.65625 433.26171875 C-57.02212672 431.12718353 -55.38923964 428.99181167 -53.76196289 426.85205078 C-49.65724548 421.46050538 -45.45143523 416.15845789 -41.20263672 410.88012695 C-37.68530968 406.50464639 -34.23722196 402.08403049 -30.82519531 397.62573242 C-23.01316758 387.41914837 -15.10057132 377.28910504 -7.1484375 367.19140625 C-3.35802548 362.37787003 0.39515618 357.53758037 4.12426758 352.67626953 C12.31783504 342.00208073 20.60132907 331.39696766 28.92431641 320.82348633 C34.41356987 313.84486192 39.85615969 306.82992597 45.30322266 299.81835938 C48.23455613 296.04574991 51.16815448 292.2749027 54.1015625 288.50390625 C55.26824044 287.00391502 56.4349071 285.50391501 57.6015625 284.00390625 C59.93489583 281.00390625 62.26822917 278.00390625 64.6015625 275.00390625 C65.1793042 274.26108398 65.7570459 273.51826172 66.35229492 272.75292969 C67.51647509 271.25614982 68.6807002 269.75940491 69.8449707 268.26269531 C72.80005423 264.46371567 75.75430264 260.6640916 78.70703125 256.86328125 C79.90099899 255.32678975 81.0950091 253.79033118 82.2890625 252.25390625 C82.87284668 251.50254395 83.45663086 250.75118164 84.05810547 249.97705078 C87.15123598 245.9994225 90.25768764 242.03304459 93.38256836 238.08032227 C97.89177955 232.3719312 102.33737215 226.61766856 106.7265625 220.81640625 C107.24814941 220.13239746 107.76973633 219.44838867 108.30712891 218.74365234 C108.78843262 218.10379395 109.26973633 217.46393555 109.765625 216.8046875 C110.19311035 216.23919189 110.6205957 215.67369629 111.06103516 215.09106445 C113.50832088 211.35812112 113.38981163 207.82764319 113.1015625 203.50390625 C111.53761562 198.89026295 109.90780841 195.59648105 106.1015625 192.50390625 C103.228509 191.54622175 101.22295257 191.30855166 98.2265625 191.25390625 C97.38351562 191.228125 96.54046875 191.20234375 95.671875 191.17578125 C85.74320735 192.44327074 78.5566503 204.8097306 72.7890625 212.25390625 Z " fill="#FEFEFE" transform="translate(649.8984375,59.49609375)"/>
<path d="M0 0 C4.29618099 3.3859823 8.4052319 6.97147529 12.46289062 10.63769531 C14.01003767 12.00889616 15.5940346 13.32155884 17.1953125 14.62890625 C19.46321581 16.54620056 21.3547256 18.36064585 23.25 20.625 C26.03492314 23.90679268 28.9265161 27.05188322 31.875 30.1875 C37.21162643 36.07147273 41.75320438 42.29608036 46 49 C46.64388672 50.01247803 46.64388672 50.01247803 47.30078125 51.04541016 C59.4950161 70.49205197 68.10210845 91.57546312 73 114 C73.17644043 114.79776855 73.35288086 115.59553711 73.53466797 116.41748047 C78.25797728 139.04161712 78.71015532 166.57382549 73 189 C72.83371094 189.68932617 72.66742188 190.37865234 72.49609375 191.08886719 C67.39843412 211.90431066 57.66970966 228.41831905 43 244 C42.38769531 244.68835938 41.77539062 245.37671875 41.14453125 246.0859375 C27.42547978 260.8873022 6.92891434 269.06476238 -12.96972656 270.1640625 C-54.41504463 271.66979613 -85.03648939 256.61725715 -115.28125 228.91015625 C-120.67523608 223.67670547 -125.33649649 217.88175651 -130 212 C-130.80566406 211.02289063 -131.61132812 210.04578125 -132.44140625 209.0390625 C-139.47544633 200.29879987 -144.87217044 190.96208927 -150 181 C-150.54551514 179.9478833 -150.54551514 179.9478833 -151.10205078 178.87451172 C-171.61055141 138.83230305 -178.00185831 89.04525829 -164.29345703 45.76953125 C-158.41809468 28.18505976 -149.15974296 13.97307994 -136 1 C-135.26265625 0.25234375 -134.5253125 -0.4953125 -133.765625 -1.265625 C-97.62438991 -35.77642843 -37.47788149 -27.73382816 0 0 Z M-129.6328125 17.94140625 C-150.60942215 43.42436757 -157.32949518 76.37982167 -154.7890625 108.68212891 C-151.66712662 139.6354136 -139.23171921 170.86889162 -121 196 C-120.61150879 196.53657227 -120.22301758 197.07314453 -119.82275391 197.62597656 C-99.48482269 225.39953867 -69.80528342 248.60942562 -35 254 C-11.11961915 257.04910442 9.00129923 250.23562608 27.7734375 235.87890625 C39.095574 226.38573026 46.10029379 213.32658434 52 200 C52 199.34 52 198.68 52 198 C50.92363281 198.28875 49.84726562 198.5775 48.73828125 198.875 C27.96000537 204.2507123 10.41850746 201.7071929 -8.171875 191.09423828 C-22.8200342 182.32646991 -33.92536249 170.26533016 -43 156 C-43.54140625 155.19304687 -44.0828125 154.38609375 -44.640625 153.5546875 C-55.48625181 136.71542482 -61.309966 115.81095415 -63 96 C-63.0721875 95.18015625 -63.144375 94.3603125 -63.21875 93.515625 C-64.08025698 72.69587299 -56.93977021 50.82549408 -43.0625 35.3125 C-33.98652963 26.62706192 -21.23447526 21.97879819 -9.0625 19.875 C-8.10472656 19.70742188 -7.14695312 19.53984375 -6.16015625 19.3671875 C-5.44730469 19.24601562 -4.73445312 19.12484375 -4 19 C-5.63533988 17.62842462 -7.31337481 16.30799504 -9 15 C-10.01707031 14.18982422 -10.01707031 14.18982422 -11.0546875 13.36328125 C-14.80141672 10.58240437 -17.07077162 9.04569976 -21.8125 8.8125 C-39.72030569 12.93413782 -53.0569677 24.71784223 -62.92578125 39.6796875 C-77.05647125 62.29943609 -78.74797809 94.32034106 -72.97460938 120.02685547 C-64.62973934 152.85879013 -44.72894527 184.99084108 -15.17016602 202.64135742 C2.24566373 212.61434719 19.1577751 215.42773658 39 215 C20.56805086 228.45034127 2.2666734 234.44397548 -20.6953125 231.53125 C-40.16241237 227.80633795 -57.18947938 219.06038525 -72 206 C-72.90363281 205.24074219 -73.80726563 204.48148438 -74.73828125 203.69921875 C-82.23610553 197.21948659 -88.23295984 190.00722071 -94 182 C-94.39429199 181.4539209 -94.78858398 180.9078418 -95.19482422 180.34521484 C-109.83398067 159.70057076 -118.42949182 135.91362052 -122 111 C-122.13148438 110.17628906 -122.26296875 109.35257812 -122.3984375 108.50390625 C-126.07772167 82.20199643 -119.8806383 53.95694967 -105 32 C-92.3716536 15.56310469 -75.39329073 6.71209743 -55 4 C-45.9628039 3.2718374 -37.83025219 4.38030707 -29.08203125 6.44140625 C-25.97665356 7.25907536 -25.97665356 7.25907536 -23 6 C-58.36932071 -12.25075064 -100.81070472 -14.25896045 -129.6328125 17.94140625 Z " fill="#FDFDFD" transform="translate(327,299)"/>
<path d="M0 0 C1.63485352 0.45536133 1.63485352 0.45536133 3.30273438 0.91992188 C4.41068359 1.23638672 5.51863281 1.55285156 6.66015625 1.87890625 C8.36268555 2.34780273 8.36268555 2.34780273 10.09960938 2.82617188 C18.46763393 5.18638393 18.46763393 5.18638393 20.72265625 7.44140625 C20.63792419 9.92829895 20.63792419 9.92829895 19.72265625 12.44140625 C17.73695374 13.71879578 17.73695374 13.71879578 15.07836914 14.65112305 C14.07659637 15.01381287 13.07482361 15.37650269 12.04269409 15.75018311 C10.93805817 16.12652893 9.83342224 16.50287476 8.6953125 16.890625 C7.54620392 17.30040588 6.39709534 17.71018677 5.21316528 18.13238525 C2.71961407 19.01841783 0.22476697 19.89651922 -2.27578735 20.76217651 C-6.25763473 22.14064564 -10.22933677 23.54683176 -14.19995117 24.95727539 C-19.63001482 26.88358956 -25.06404192 28.79824985 -30.50097656 30.70507812 C-40.39299848 34.17651706 -50.25246248 37.73723889 -60.11096191 41.30258179 C-65.18786285 43.1369589 -70.26792533 44.96254016 -75.34765625 46.7890625 C-89.72179127 51.96001775 -104.09407915 57.13609262 -118.46484375 62.31640625 C-119.10590183 62.54746693 -119.74695992 62.7785276 -120.407444 63.01659012 C-140.68579311 70.32584256 -160.94684769 77.68158265 -181.19885254 85.06356812 C-197.95757397 91.17024549 -214.74653298 97.18607968 -231.56143188 103.13619995 C-242.83487778 107.12638194 -254.07039376 111.18533348 -265.24804688 115.43774414 C-271.86171289 117.942975 -278.52304891 120.2788543 -285.21484375 122.56640625 C-296.25918285 126.35367942 -307.25751657 130.2632535 -318.23391724 134.24285889 C-320.0843421 134.91259807 -321.93579405 135.57950682 -323.78829956 136.24346924 C-326.4073833 137.18304369 -329.02241915 138.13314512 -331.63671875 139.0859375 C-332.42005081 139.36483322 -333.20338287 139.64372894 -334.01045227 139.93107605 C-346.31314839 144.45704282 -352.78030663 152.93563985 -359.21484375 163.94140625 C-359.99069824 165.25842529 -359.99069824 165.25842529 -360.78222656 166.60205078 C-373.80063078 188.92452298 -382.2066994 212.06762228 -387.27734375 237.44140625 C-387.45668457 238.3324707 -387.63602539 239.22353516 -387.82080078 240.14160156 C-392.94643712 267.12881496 -392.16381948 297.49542836 -387.27734375 324.44140625 C-387.11637207 325.37098145 -386.95540039 326.30055664 -386.78955078 327.25830078 C-378.4700352 374.30632018 -361.13589749 423.40936782 -333.27734375 462.44140625 C-332.85259766 463.04130371 -332.42785156 463.64120117 -331.99023438 464.25927734 C-318.24271468 483.55718845 -302.35024362 500.81512412 -281.5546875 512.50390625 C-275.37533361 516.15701654 -275.37533361 516.15701654 -273.27734375 518.44140625 C-272.20389218 525.27179331 -274.46570904 530.28444799 -277.40234375 536.37890625 C-277.78132812 537.24064453 -278.1603125 538.10238281 -278.55078125 538.99023438 C-281.45445298 545.13150009 -281.45445298 545.13150009 -285.31640625 546.5859375 C-299.69589522 545.88403632 -315.79304215 532.46238168 -326.27734375 523.44140625 C-327.19644531 522.7040625 -328.11554688 521.96671875 -329.0625 521.20703125 C-343.4504587 509.49294098 -356.98221304 496.17231817 -368.27734375 481.44140625 C-369.20874467 480.29532795 -370.14392792 479.1523174 -371.08203125 478.01171875 C-378.34176851 469.15453568 -384.9479591 459.9814149 -391.27734375 450.44140625 C-391.71369141 449.79010742 -392.15003906 449.13880859 -392.59960938 448.46777344 C-438.15233135 380.34114702 -468.44717996 302.70851985 -453.08203125 219.8918457 C-442.9038786 168.76196803 -442.9038786 168.76196803 -425.27734375 156.44140625 C-422.01245117 154.84594727 -422.01245117 154.84594727 -418.3828125 153.4453125 C-417.70420166 153.17978073 -417.02559082 152.91424896 -416.32641602 152.64067078 C-414.04336545 151.75064614 -411.75426093 150.87741056 -409.46484375 150.00390625 C-407.80145332 149.35939344 -406.1384613 148.71385162 -404.47583008 148.06738281 C-399.78435518 146.24681534 -395.08719706 144.4413102 -390.38916016 142.63775635 C-384.85906271 140.51168856 -379.33422227 138.37202408 -373.80859375 136.234375 C-364.09634873 132.47891636 -354.38109325 128.73133804 -344.6640625 124.98828125 C-331.69443664 119.99162819 -318.73410275 114.97131367 -305.77734375 109.94140625 C-289.18024091 103.49896499 -272.57413168 97.0802217 -255.96264648 90.67495728 C-236.75431256 83.26823262 -217.55640246 75.83653228 -198.3828125 68.34033203 C-185.35612447 63.2479546 -172.31882038 58.18328477 -159.27734375 53.12890625 C-158.25181396 52.73144196 -157.22628418 52.33397766 -156.16967773 51.92446899 C-150.95697168 49.904295 -145.74413859 47.88444902 -140.53125 45.86474609 C-131.29481473 42.28596917 -122.0594945 38.70431686 -112.82409668 35.12286377 C-109.78805121 33.94555835 -106.75194561 32.76840814 -103.71582031 31.59130859 C-94.26787053 27.92827908 -84.82025059 24.26440567 -75.3737793 20.5975647 C-70.98067743 18.89235176 -66.58739097 17.18761467 -62.1940918 15.48291016 C-60.12840782 14.68122539 -58.06281122 13.87931542 -55.99731445 13.07714844 C-55.02560303 12.69977539 -54.0538916 12.32240234 -53.05273438 11.93359375 C-52.09866699 11.56293793 -51.14459961 11.1922821 -50.16162109 10.81039429 C-48.28799754 10.08438934 -46.41333936 9.36104817 -44.53759766 8.64053345 C-39.8402696 6.83543193 -35.16408568 4.99313085 -30.50976562 3.07958984 C-29.57062317 2.70154709 -28.63148071 2.32350433 -27.66387939 1.93400574 C-25.8949961 1.22161039 -24.13196009 0.49442952 -22.37664795 -0.2507782 C-14.39750977 -3.42502207 -8.13042324 -2.2665951 0 0 Z " fill="#FDFDFD" transform="translate(485.27734375,70.55859375)"/>
<path d="M0 0 C3.56132791 -0.10758691 7.12282137 -0.18002827 10.68516541 -0.24446106 C12.35350017 -0.28165713 14.02159301 -0.33289602 15.68901062 -0.39955139 C27.50287105 -0.85846605 35.62495761 1.17511347 45.80247498 7.22862244 C48.2365386 8.67578678 50.73087712 10.00785053 53.2191925 11.35902405 C54.95359653 12.3426768 56.68535041 13.33101614 58.414505 14.3238678 C59.35705139 14.86189026 60.29959778 15.39991272 61.27070618 15.95423889 C63.28733222 17.10664366 65.30285386 18.26098295 67.31733704 19.41712952 C70.17244411 21.05127703 73.03308326 22.67493823 75.89674377 24.29400635 C78.29975603 25.6541781 80.69919945 27.02055937 83.09791565 28.38829041 C84.82522898 29.37113223 86.55612216 30.34767397 88.2870636 31.32411194 C89.33587708 31.9247345 90.38469055 32.52535706 91.46528625 33.1441803 C92.39768127 33.67414612 93.33007629 34.20411194 94.29072571 34.75013733 C96.539505 36.2613678 96.539505 36.2613678 98.539505 39.2613678 C98.53089766 45.24346939 95.3144153 48.53092027 91.602005 52.8238678 C90.40527486 54.24976252 89.20997719 55.67686065 88.0160675 57.1051178 C87.42342102 57.80894592 86.83077454 58.51277405 86.22016907 59.2379303 C83.89079625 62.04238148 81.6828775 64.92102582 79.477005 67.8238678 C75.78431693 72.66297864 72.0308129 77.44659007 68.227005 82.1988678 C67.48921814 83.12131287 67.48921814 83.12131287 66.73652649 84.06239319 C65.34263988 85.79959462 63.94225847 87.53132187 62.539505 89.2613678 C62.07882629 89.83516174 61.61814758 90.40895569 61.14350891 91.00013733 C57.7703237 95.14595845 57.7703237 95.14595845 55.539505 96.2613678 C50.23138205 96.53127236 45.35825065 96.12366581 40.1098175 95.31214905 C30.84270914 93.99509842 21.54879277 93.6973857 12.20350647 93.37025452 C9.0328154 93.25893871 5.86259595 93.13825385 2.69233704 93.01527405 C-5.16762013 92.71207485 -13.02807919 92.42298561 -20.88865662 92.1363678 C-27.56568051 91.89267124 -34.24237588 91.64218239 -40.91877747 91.38197327 C-44.03330618 91.26335543 -47.14808254 91.15480232 -50.26298523 91.04652405 C-52.17519638 90.97283277 -54.08738834 90.89864088 -55.9995575 90.8238678 C-56.85784653 90.79679749 -57.71613556 90.76972717 -58.60043335 90.74183655 C-63.53784373 90.53604541 -67.76538344 89.81878603 -72.460495 88.2613678 C-72.61983683 83.14711557 -72.07161688 78.5001612 -70.95658875 73.53089905 C-70.79793335 72.79429047 -70.63927795 72.05768188 -70.47581482 71.29875183 C-69.95604176 68.88907489 -69.42699718 66.48153379 -68.897995 64.0738678 C-68.15884878 60.66603264 -67.42566434 57.25694055 -66.69487 53.8473053 C-66.41470284 52.54257515 -66.41470284 52.54257515 -66.12887573 51.21148682 C-64.83275287 45.13015356 -63.62652543 39.03590624 -62.47612 32.9254303 C-62.32026932 32.10127121 -62.16441864 31.27711212 -62.00384521 30.42797852 C-61.40234123 27.23884782 -60.80255558 24.0495883 -60.22242737 20.85649109 C-59.82435448 18.66561023 -59.41477496 16.4771391 -59.00346375 14.28871155 C-58.77683044 13.04855286 -58.55019714 11.80839417 -58.31669617 10.53065491 C-57.45704334 7.24818813 -56.4909838 4.9710749 -54.460495 2.2613678 C-50.6876081 1.00373883 -47.10296152 1.02759119 -43.16752625 0.94496155 C-42.32548645 0.92377258 -41.48344666 0.90258362 -40.6158905 0.88075256 C-32.90903673 0.69397081 -25.20083402 0.55759222 -17.49279785 0.42993164 C-11.65983095 0.33123076 -5.83073615 0.18844065 0 0 Z " fill="#FEFEFE" transform="translate(285.4604949951172,663.7386322021484)"/>
<path d="M0 0 C0.8479866 -0.00571014 1.69597321 -0.01142029 2.56965637 -0.01730347 C3.96832443 -0.01898026 3.96832443 -0.01898026 5.39524841 -0.02069092 C6.37594803 -0.02565582 7.35664764 -0.03062073 8.36706543 -0.03573608 C11.62443231 -0.05038686 14.88175042 -0.05716628 18.1391449 -0.06268311 C20.401591 -0.0684343 22.66403708 -0.07419204 24.92648315 -0.07995605 C29.6787692 -0.0904758 34.43103829 -0.09631139 39.18333435 -0.09979248 C45.26056652 -0.10526445 51.3375732 -0.12926071 57.41473484 -0.15776443 C62.0928817 -0.17643306 66.77097485 -0.18159878 71.44915581 -0.18312836 C73.68855452 -0.18614832 75.92795244 -0.19415461 78.16731453 -0.20731354 C81.30987013 -0.22445412 84.4518832 -0.22247354 87.59446716 -0.21600342 C88.51274292 -0.2252182 89.43101868 -0.23443298 90.37712097 -0.243927 C100.07331737 -0.18169579 107.12351746 2.77497115 114.88523865 8.39044189 C116.54287011 9.55624487 118.20184062 10.72014512 119.86180115 11.88262939 C121.27380798 12.87601318 121.27380798 12.87601318 122.71434021 13.88946533 C128.60985589 17.99371289 134.57500542 21.99543277 140.53096008 26.01123047 C142.75799907 27.51393074 144.98320306 29.0193069 147.20774841 30.5256958 C153.75730971 34.96069338 160.31100348 39.38854417 166.8891449 43.78106689 C168.41414612 44.80514648 168.41414612 44.80514648 169.96995544 45.84991455 C171.8095887 47.08515311 173.65322654 48.31445849 175.50169373 49.53643799 C183.69319263 55.05649282 183.69319263 55.05649282 185.94773865 59.14044189 C185.58897958 64.33036337 183.62535952 68.31117435 181.2719574 72.83966064 C180.90552628 73.55652542 180.53909515 74.2733902 180.16156006 75.01197815 C179.38809754 76.51923659 178.61044326 78.02435056 177.82884216 79.52740479 C176.63691364 81.82471353 175.46450788 84.13127036 174.29344177 86.43927002 C173.53743718 87.90666349 172.78031335 89.37348098 172.0219574 90.83966064 C171.67388535 91.52718918 171.32581329 92.21471771 170.9671936 92.92308044 C169.10098921 96.475121 167.53388752 99.19908175 163.94773865 101.14044189 C158.74982094 101.09093792 155.70028226 98.8105536 151.88523865 95.57794189 C150.65769434 94.57595104 149.42841221 93.57608681 148.19773865 92.57794189 C147.52613708 92.03009033 146.85453552 91.48223877 146.1625824 90.91778564 C141.96918989 87.55271758 137.67048598 84.32461908 133.38523865 81.07794189 C131.56335877 79.69417653 129.7417385 78.3100693 127.9203949 76.92559814 C126.63092957 75.94550781 126.63092957 75.94550781 125.31541443 74.94561768 C122.30572556 72.65095491 119.31386953 70.33423685 116.32273865 68.01544189 C110.85321386 63.79980026 105.31518271 59.68026136 99.76023865 55.57794189 C98.92089783 54.95709717 98.08155701 54.33625244 97.21678162 53.69659424 C96.04139832 52.83155273 96.04139832 52.83155273 94.8422699 51.94903564 C94.13948914 51.43139648 93.43670837 50.91375732 92.71263123 50.38043213 C88.84270437 47.66147259 85.3545889 48.02713031 80.78196716 48.07452393 C79.93793335 48.07919678 79.09389954 48.08386963 78.22428894 48.08868408 C76.38815603 48.09920072 74.55203449 48.11186798 72.71592903 48.12640762 C69.81231619 48.14836274 66.90876796 48.16248503 64.00509644 48.17410278 C55.7481753 48.20776567 47.49136148 48.24940661 39.23460388 48.31182861 C34.18784799 48.34942136 29.14120288 48.37248273 24.09432793 48.3861351 C22.16813506 48.39420515 20.24195735 48.4078361 18.31584358 48.4270668 C15.62472401 48.45346626 12.93413737 48.46143175 10.24290466 48.46514893 C9.04352516 48.48368423 9.04352516 48.48368423 7.81991577 48.50259399 C2.46179052 48.48301919 2.46179052 48.48301919 0.00717163 46.84719849 C-1.86697927 43.8279236 -2.61223008 40.42384498 -3.48976135 37.01544189 C-3.70003967 36.22299072 -3.91031799 35.43053955 -4.12696838 34.61407471 C-4.78081016 32.12582983 -5.41705297 29.63350073 -6.05226135 27.14044189 C-6.26092834 26.34476807 -6.46959534 25.54909424 -6.68458557 24.72930908 C-7.27992919 22.45307884 -7.85698433 20.17306736 -8.42726135 17.89044189 C-8.607005 17.20063232 -8.78674866 16.51082275 -8.97193909 15.80010986 C-9.98476812 11.59488092 -10.15498144 8.33327026 -9.05226135 4.14044189 C-6.40314739 0.80025472 -4.16545897 0.01677497 0 0 Z " fill="#FDFDFD" transform="translate(235.05226135253906,586.8595581054688)"/>
<path d="M0 0 C0.90255633 4.47859393 1.04743885 8.5067283 0.75 13.0625 C0.68296875 14.24972656 0.6159375 15.43695313 0.546875 16.66015625 C-0.06068136 20.37058974 -0.48824453 22.1913122 -3 25 C-11.39214532 28.51293737 -20.27361345 29.33899704 -29.22265625 30.48046875 C-30.89464984 30.69975167 -32.56655921 30.91967765 -34.23838806 31.14021301 C-37.72829406 31.59864776 -41.21891038 32.05104585 -44.71020508 32.4987793 C-49.16869186 33.07079273 -53.62543487 33.65525471 -58.08174992 34.24392223 C-61.52917016 34.6983714 -64.97726278 35.14753314 -68.42559624 35.5949955 C-70.06868914 35.80858465 -71.71161322 36.02347689 -73.35435677 36.23973656 C-75.65495993 36.54152025 -77.95633939 36.83648905 -80.25805664 37.12963867 C-81.56327774 37.29823898 -82.86849884 37.46683929 -84.21327209 37.64054871 C-88.1873481 38.01778383 -92.01171286 38.06170229 -96 38 C-93.45815176 35.00256845 -90.74099905 33.85506549 -87.1328125 32.3828125 C-86.52603668 32.13309692 -85.91926086 31.88338135 -85.2940979 31.62609863 C-83.24096981 30.78421281 -81.18328572 29.95418974 -79.125 29.125 C-77.65907454 28.52939284 -76.19325747 27.93351884 -74.72753906 27.33740234 C-70.48249228 25.61503773 -66.23198773 23.90644631 -61.98083496 22.19921875 C-58.75147236 20.90001492 -55.52453249 19.5949117 -52.29785156 18.2890625 C-46.31779897 15.87018629 -40.33267412 13.46423575 -34.34417725 11.06634521 C-31.95083123 10.1065601 -29.55877471 9.14355313 -27.16802979 8.17730713 C-23.77743095 6.80859856 -20.38170248 5.4534678 -16.984375 4.1015625 C-15.45352768 3.47912659 -15.45352768 3.47912659 -13.89175415 2.84411621 C-5.21967069 -0.57837212 -5.21967069 -0.57837212 0 0 Z " fill="#FBFBFB" transform="translate(281,200)"/>
<path d="M0 0 C0.99 0.495 0.99 0.495 2 1 C1.42530372 5.14177661 -0.82735911 7.65227446 -3.375 10.875 C-3.81980713 11.44162354 -4.26461426 12.00824707 -4.72290039 12.59204102 C-5.66643986 13.79259491 -6.61288306 14.9908716 -7.56201172 16.18701172 C-8.95545996 17.94384476 -10.34052819 19.70690898 -11.72265625 21.47265625 C-14.01287954 24.39717146 -16.30979749 27.31633847 -18.60888672 30.23388672 C-20.45020041 32.57156016 -22.28860978 34.91150763 -24.12670898 37.25170898 C-25.0439304 38.41939299 -25.96141187 39.58687277 -26.87915039 40.75415039 C-29.15010342 43.64280907 -31.41807908 46.53370535 -33.6796875 49.4296875 C-38.57733554 55.69387276 -43.5326603 61.90381258 -48.5625 68.0625 C-53.32742193 73.89932001 -57.97445756 79.80848313 -62.546875 85.796875 C-69.39987649 94.76867888 -76.45505065 103.58420851 -83.5168457 112.3918457 C-88.26494262 118.31871697 -92.95799697 124.28784633 -97.64111328 130.26611328 C-100.3828512 133.76446446 -103.13074956 137.2579795 -105.87744141 140.75244141 C-108.15856239 143.65502423 -110.43828263 146.55868273 -112.71484375 149.46484375 C-117.44612849 155.50131048 -122.20227899 161.51616073 -127 167.5 C-133.85302732 176.04953864 -140.63698159 184.65158303 -147.34375 193.31640625 C-153.59152661 201.38434638 -159.89841883 209.38890429 -166.36425781 217.28344727 C-170.6881016 222.5760831 -174.85760492 227.97260984 -178.9765625 233.42578125 C-182.23555033 237.57186809 -182.23555033 237.57186809 -184 239 C-184.99 239 -185.98 239 -187 239 C-186.46382947 234.75187963 -183.86041631 231.95615447 -181.25 228.75 C-180.76337891 228.1415625 -180.27675781 227.533125 -179.77539062 226.90625 C-178.1915334 224.93094517 -176.59723306 222.96450102 -175 221 C-174.46697266 220.34322266 -173.93394531 219.68644531 -173.38476562 219.00976562 C-171.20671188 216.32726518 -169.0269273 213.64619644 -166.84326172 210.96826172 C-161.47570089 204.3792826 -156.22908105 197.69904234 -151 191 C-144.693822 182.92107504 -138.31876609 174.90788097 -131.84082031 166.96582031 C-126.47486814 160.37700427 -121.22838345 153.69814864 -116 147 C-109.67205131 138.89318433 -103.2716871 130.85630752 -96.76611328 122.89111328 C-93.44217582 118.80944831 -90.19218453 114.68553855 -87 110.5 C-82.73916153 104.91326042 -78.33541385 99.45755753 -73.89111328 94.01611328 C-68.50463711 87.41328495 -63.24303122 80.71691408 -58 74 C-51.693822 65.92107504 -45.31876609 57.90788097 -38.84082031 49.96582031 C-33.93508422 43.94210044 -29.12834349 37.8449375 -24.34716797 31.72216797 C-22.97604562 29.96937764 -21.60015196 28.22044132 -20.22265625 26.47265625 C-9.75591775 13.49457982 -9.75591775 13.49457982 0 0 Z " fill="#F4F4F4" transform="translate(755,267)"/>
<path d="M0 0 C0.99 0.495 0.99 0.495 2 1 C1.67 1.66 1.34 2.32 1 3 C1.99 3.495 1.99 3.495 3 4 C2.04697998 4.36460327 2.04697998 4.36460327 1.07470703 4.73657227 C-23.78439591 14.26611052 -48.51738322 24.11448324 -73.25956535 33.94232941 C-87.27917215 39.51099207 -101.30787872 45.05652559 -115.33886719 50.59643555 C-116.14875092 50.91645035 -116.95863464 51.23646515 -117.7930603 51.56617737 C-119.34783211 52.18007658 -120.90301318 52.79294055 -122.45864868 53.40464783 C-126.09235473 54.83614024 -129.71410486 56.28940038 -133.31884766 57.79248047 C-134.00247879 58.07478012 -134.68610992 58.35707977 -135.39045715 58.64793396 C-137.22697709 59.40840273 -139.05957898 60.17831458 -140.8918457 60.94897461 C-143.84130891 61.94633846 -145.92154416 62.23392083 -149 62 C-146.57831186 59.19784714 -144.22760644 58.08332567 -140.796875 56.75 C-139.69754639 56.3171167 -138.59821777 55.8842334 -137.46557617 55.43823242 C-136.23943604 54.96361572 -135.0132959 54.48899902 -133.75 54 C-131.71785126 53.20208692 -129.68699395 52.40094287 -127.65617371 51.59965515 C-126.173929 51.01492573 -124.69134248 50.43106219 -123.20845032 49.84797668 C-114.48200763 46.41338824 -105.79183869 42.88967962 -97.10037231 39.36773682 C-92.11719246 37.34865335 -87.13278992 35.33259299 -82.1484375 33.31640625 C-81.11036453 32.89643372 -80.07229156 32.47646118 -79.00276184 32.04376221 C-71.23075504 28.90018771 -63.45632891 25.76263461 -55.68081474 22.62774849 C-53.73225818 21.8421401 -51.78373531 21.05644823 -49.83522034 20.27073669 C-39.46437889 16.08896281 -39.46437889 16.08896281 -34.58065796 14.12142944 C-31.04962245 12.69874316 -27.51892615 11.27521782 -23.98828125 9.8515625 C-22.43477463 9.22609779 -22.43477463 9.22609779 -20.84988403 8.58799744 C-19.8595517 8.18851395 -18.86921936 7.78903046 -17.84887695 7.37744141 C-16.89381256 6.99324036 -15.93874817 6.60903931 -14.95474243 6.2131958 C-12.84691645 5.34773775 -10.74902586 4.45791615 -8.65829468 3.55194092 C-7.57504913 3.08411194 -6.49180359 2.61628296 -5.37573242 2.13427734 C-4.39336105 1.70239105 -3.41098969 1.27050476 -2.39884949 0.82553101 C-1.60722916 0.55310577 -0.81560883 0.28068054 0 0 Z " fill="#F4F4F4" transform="translate(450,131)"/>
<path d="M0 0 C0.66 0.99 1.32 1.98 2 3 C-1.50776784 4.60355101 -4.14354879 5.22036864 -8 5 C-5.64722731 2.27573689 -3.37503669 1.1858237 0 0 Z " fill="#EEEEEE" transform="translate(309,188)"/>
<path d="M0 0 C0.66 0.33 1.32 0.66 2 1 C0.95125002 3.62187494 0.35068687 4.79371361 -2.125 6.25 C-2.74375 6.4975 -3.3625 6.745 -4 7 C-2.92598892 4.08482708 -2.22189824 2.22189824 0 0 Z " fill="#FAFAFA" transform="translate(573,499)"/>
<path d="M0 0 C0.99 0.495 0.99 0.495 2 1 C1.01 1.495 1.01 1.495 0 2 C0 1.34 0 0.68 0 0 Z M-1 2 C-0.34 3.32 0.32 4.64 1 6 C-0.65 6.33 -2.3 6.66 -4 7 C-2.125 3.125 -2.125 3.125 -1 2 Z " fill="#EDEDED" transform="translate(695,343)"/>
<path d="M0 0 C0.33 0.66 0.66 1.32 1 2 C-0.25 4.5625 -0.25 4.5625 -2 7 C-2.99 7.33 -3.98 7.66 -5 8 C-3.62845496 5.04590299 -2.01136276 2.55991624 0 0 Z " fill="#F2F2F2" transform="translate(720,326)"/>
</svg>
